<?xml version="1.0" standalone="no"?>
<!DOCTYPE svg PUBLIC "-//W3C//DTD SVG 20010904//EN"
 "http://www.w3.org/TR/2001/REC-SVG-20010904/DTD/svg10.dtd">
<svg version="1.0" xmlns="http://www.w3.org/2000/svg"
 width="1440.000000pt" height="868.000000pt" viewBox="0 0 1440.000000 868.000000"
 preserveAspectRatio="xMidYMid meet">
<metadata>
Created by potrace 1.16, written by Peter Selinger 2001-2019
</metadata>
<g transform="translate(0.000000,868.000000) scale(0.100000,-0.100000)"
fill="#000000" stroke="none">
<path d="M9403 7972 c-13 -2 -23 -8 -23 -13 0 -6 -7 -6 -19 1 -11 5 -28 10
-38 10 -17 -1 -17 -1 -1 -10 15 -9 14 -13 -10 -37 -15 -15 -31 -26 -37 -25 -5
2 -7 0 -2 -4 4 -4 0 -19 -10 -33 -16 -26 -16 -26 4 -8 12 10 23 14 26 9 3 -4
-18 -25 -47 -46 -28 -21 -60 -53 -70 -70 -11 -18 -21 -26 -23 -18 -3 6 -10 9
-16 5 -13 -8 -113 -7 -126 1 -12 8 -173 -12 -183 -22 -5 -5 16 -5 48 0 32 5
83 8 113 6 l56 -3 -30 -16 c-16 -9 -64 -22 -105 -28 -83 -15 -113 -30 -213
-108 -37 -30 -86 -61 -109 -69 -24 -8 -46 -21 -51 -30 -4 -8 -12 -12 -17 -9
-5 3 -31 -6 -57 -20 -36 -20 -41 -24 -20 -20 27 5 25 2 -24 -47 -29 -29 -56
-52 -60 -51 -3 1 -19 -12 -35 -30 -16 -17 -22 -26 -14 -20 10 7 21 8 30 3 8
-5 17 -7 20 -5 4 2 7 -9 7 -25 0 -16 -4 -27 -9 -24 -4 3 -8 -2 -8 -12 0 -9
-16 -39 -35 -65 -19 -27 -35 -51 -35 -54 0 -3 21 15 46 40 25 25 48 45 51 45
8 0 -26 -40 -54 -63 -13 -10 -23 -23 -23 -28 0 -6 10 -7 23 -3 18 5 17 2 -8
-16 -16 -13 -34 -27 -39 -31 -5 -4 -10 -24 -12 -45 -1 -23 -11 -45 -25 -58
l-22 -21 17 28 c12 19 14 33 7 44 -7 14 -12 10 -26 -22 -9 -22 -19 -58 -22
-81 -5 -35 -2 -44 18 -58 26 -18 43 -21 34 -6 -3 6 1 7 9 4 23 -9 19 5 -6 27
-22 18 -22 18 -3 19 11 0 27 5 35 10 13 9 13 11 0 21 -12 8 -9 9 10 4 24 -7
24 -7 5 9 -11 8 -15 16 -8 16 7 0 10 7 7 15 -5 11 2 15 26 15 23 0 33 -5 37
-20 3 -11 9 -20 15 -20 5 0 3 -6 -4 -14 -7 -8 -16 -12 -19 -10 -4 2 -6 -4 -5
-14 1 -14 -7 -17 -38 -16 -36 2 -38 0 -21 -12 10 -8 15 -14 9 -14 -5 -1 2 -7
16 -15 l25 -13 -30 -12 c-36 -14 -94 -5 -102 16 -9 25 -23 15 -23 -18 0 -18
-7 -46 -15 -62 -17 -32 -19 -106 -6 -169 5 -23 15 -73 21 -112 20 -111 65
-220 113 -268 23 -23 31 -33 17 -22 l-25 20 19 -22 c14 -17 23 -20 37 -13 10
6 48 10 85 10 99 0 164 -45 273 -190 49 -66 66 -97 101 -185 26 -65 40 -126
40 -177 0 -43 4 -60 15 -64 8 -4 15 -13 15 -21 0 -8 4 -12 9 -8 5 3 11 -5 13
-17 2 -17 11 -24 33 -26 17 -2 36 -8 43 -14 8 -7 12 -7 12 2 0 7 7 10 16 6 13
-5 15 -1 11 21 -3 15 -1 37 4 48 10 20 10 20 -5 1 -9 -11 -16 -24 -16 -29 0
-5 -6 -5 -13 1 -7 6 -24 9 -38 6 -22 -5 -23 -5 -6 9 17 14 17 16 -5 32 -14 10
-18 19 -12 22 7 2 9 14 6 26 -5 20 -4 20 11 8 9 -7 17 -12 18 -10 6 31 6 39
-2 39 -5 0 -9 5 -9 11 0 6 7 9 15 5 8 -3 15 -1 15 4 0 6 -4 10 -8 10 -5 0 -13
12 -20 28 l-12 27 6 -28 c5 -29 -9 -57 -28 -57 -6 0 -8 9 -5 20 3 11 2 20 -2
20 -9 0 -62 97 -59 108 2 4 -14 24 -34 45 -21 21 -38 45 -38 53 0 9 -7 22 -15
30 -21 21 -19 52 3 50 9 0 20 -5 23 -9 3 -5 6 16 6 45 0 30 6 64 12 77 14 25
5 85 -11 75 -6 -4 -8 2 -3 16 5 16 4 20 -5 15 -9 -6 -11 3 -7 36 7 63 20 89
67 134 36 35 100 118 100 131 0 2 -7 4 -16 4 -14 0 -15 2 -3 17 12 15 12 16
-1 8 -8 -5 -24 -10 -35 -12 -11 -1 -14 1 -7 3 6 3 9 10 6 15 -3 6 -12 5 -22
-3 -12 -10 -11 -7 3 15 12 19 15 31 8 38 -8 8 -13 7 -17 0 -10 -16 -29 -13
-23 3 3 8 -1 17 -10 21 -13 4 -14 8 -5 17 16 16 15 33 -1 20 -8 -7 -18 -7 -27
-2 -12 7 -12 12 3 28 15 17 16 21 3 32 -14 10 -14 16 -1 46 8 19 12 34 9 34
-3 0 4 14 16 30 14 19 17 30 9 30 -7 0 0 13 16 30 15 16 32 27 37 24 5 -3 16
2 24 12 9 11 13 13 9 7 -11 -22 8 -14 80 32 38 25 76 45 85 45 8 0 24 3 36 6
13 3 28 -1 38 -11 9 -9 16 -12 16 -6 0 6 3 10 8 9 4 -1 19 4 34 10 15 6 38 13
52 15 14 1 28 6 32 10 4 4 18 7 31 7 12 0 23 4 23 8 0 5 18 14 40 21 22 6 40
16 40 21 0 9 40 25 54 22 5 -2 6 3 3 11 -6 16 24 15 98 -3 28 -7 77 -14 111
-15 33 -1 65 -5 71 -8 7 -4 14 -3 18 2 3 5 15 7 28 4 60 -14 80 -15 73 -4 -4
6 -5 11 -3 11 9 0 105 -135 133 -188 33 -62 44 -52 18 16 -10 26 -18 49 -19
52 0 3 -10 19 -23 37 -12 17 -22 38 -22 46 0 8 -12 26 -26 41 l-27 26 33 0
c27 0 31 3 25 18 -13 33 -16 72 -6 72 6 0 11 5 11 10 0 6 -10 10 -21 10 -17 0
-19 3 -10 13 8 10 7 17 -1 25 -8 8 -9 12 -1 12 6 0 9 8 7 18 -3 9 -1 35 4 57
11 52 -10 181 -38 240 -12 24 -43 63 -69 87 -26 24 -46 49 -43 57 5 16 -58
109 -101 147 -79 71 -208 112 -304 96z m67 -272 l-25 -8 25 -1 c30 -1 103 -21
98 -26 -2 -2 -48 0 -102 6 -138 14 -224 -8 -419 -108 -38 -19 -71 -32 -75 -29
-3 3 1 6 8 6 7 0 11 2 8 5 -9 10 -38 -7 -31 -18 3 -5 1 -7 -4 -4 -6 4 -19 -3
-29 -14 -10 -11 -24 -17 -31 -15 -7 3 -13 1 -13 -3 0 -5 -17 -19 -37 -31 -24
-14 -32 -16 -24 -6 8 9 10 16 5 16 -14 -1 -40 -23 -47 -40 -5 -13 -6 -13 -6 1
-1 22 65 72 137 105 61 27 84 48 40 36 -17 -4 -20 -2 -15 12 4 11 3 15 -4 11
-6 -4 -8 -13 -5 -21 3 -8 2 -14 -2 -14 -50 -4 -129 -14 -180 -24 l-62 -13 21
23 c28 30 141 81 126 57 -3 -4 12 -7 34 -5 21 2 42 8 45 13 3 5 15 9 28 9 12
0 27 5 34 12 9 9 12 9 12 0 0 -10 5 -10 21 -1 17 8 20 8 14 -1 -5 -9 -1 -10
16 -5 13 4 26 12 27 16 2 5 9 9 15 9 7 0 25 7 40 15 21 10 27 11 25 2 -2 -6
-21 -20 -42 -31 -20 -10 -35 -20 -33 -22 4 -5 136 40 185 62 18 8 63 18 100
21 37 3 68 6 69 7 1 1 19 2 40 3 33 1 35 0 13 -7z"/>
<path d="M10145 6756 c-20 -27 -19 -29 10 -72 29 -43 31 -54 9 -54 -15 0 -156
-72 -181 -92 -6 -5 -17 -32 -23 -61 -7 -29 -17 -60 -22 -70 -6 -12 -1 -30 18
-62 27 -48 31 -49 119 -45 35 1 125 42 125 56 0 7 -56 -2 -71 -11 -6 -4 -27
-11 -45 -15 -62 -14 -53 30 9 46 55 13 76 12 70 -3 -4 -11 -1 -12 21 -2 16 8
22 15 15 19 -7 5 -5 9 5 13 20 8 44 -18 68 -75 l19 -43 -5 41 c-3 22 -15 69
-26 103 -24 76 -25 95 -5 111 12 10 18 3 39 -42 14 -29 35 -86 47 -126 15 -52
28 -78 46 -90 14 -9 36 -28 49 -41 l24 -24 20 45 c10 24 28 53 40 63 11 10 20
27 20 39 0 12 3 17 10 10 5 -5 6 -24 0 -49 -5 -22 -10 -57 -10 -77 0 -32 4
-39 24 -44 15 -3 23 -11 20 -19 -3 -7 -1 -16 5 -20 6 -3 11 -1 11 5 0 19 52
60 75 60 32 0 38 11 15 27 -25 17 -26 54 -2 69 9 6 42 17 72 24 62 15 101 40
62 40 -20 0 -41 24 -30 35 2 2 23 -1 47 -6 24 -5 53 -7 64 -3 20 6 19 7 -7 21
-20 10 -25 18 -17 27 7 8 4 15 -10 24 -10 7 -19 21 -19 32 0 11 -4 20 -8 20
-15 0 -52 41 -46 51 3 6 23 23 45 38 l39 28 -46 -5 c-57 -6 -66 5 -59 73 l5
50 -23 -61 c-18 -48 -23 -75 -19 -123 5 -73 -10 -115 -46 -130 -46 -18 -66 -9
-81 40 -7 24 -22 63 -32 87 -11 23 -19 56 -19 72 0 17 -4 30 -10 30 -13 0 -13
-33 1 -102 9 -46 9 -60 -5 -87 -13 -24 -14 -36 -5 -52 14 -27 6 -34 -21 -19
-16 9 -19 15 -10 25 8 10 8 15 -1 21 -8 4 -9 3 -5 -4 5 -8 -1 -12 -17 -12 -26
0 -59 31 -63 58 -1 9 -4 34 -7 55 -2 20 -7 36 -10 35 -9 -5 -47 49 -47 66 0 9
-9 25 -20 36 -11 11 -20 26 -20 34 0 8 -14 1 -35 -18 -19 -18 -35 -37 -35 -43
0 -13 -47 -26 -60 -18 -16 10 -12 33 8 45 16 11 16 11 0 6 -22 -7 -23 7 -3 24
22 18 19 27 -10 33 -18 3 -30 -2 -40 -17z"/>
<path d="M9670 6401 c0 -12 -3 -12 -12 -3 -13 13 -32 17 -25 5 3 -5 -7 -8 -22
-9 -28 -1 -164 -61 -169 -76 -2 -4 -13 -8 -25 -8 -16 0 -18 -3 -8 -9 10 -6 4
-12 -23 -21 -20 -6 -36 -16 -36 -21 0 -5 -7 -9 -15 -9 -8 0 -15 -7 -15 -15 0
-19 3 -19 42 3 18 10 53 22 78 26 25 3 58 8 74 11 16 2 35 1 43 -4 20 -11 4
-22 -85 -60 -74 -31 -118 -58 -119 -75 -1 -5 -7 -13 -15 -17 -27 -18 12 -9 51
10 21 11 56 22 77 25 21 2 52 9 68 16 16 6 36 8 45 5 12 -5 8 -10 -14 -25 -17
-11 -25 -20 -19 -20 12 0 94 57 94 65 0 3 -10 1 -22 -5 -23 -11 -23 -11 1 9
13 12 32 21 42 21 10 0 19 5 19 11 0 6 7 9 15 5 13 -5 20 5 16 27 0 4 3 7 9 7
5 0 7 6 4 13 -2 7 5 22 16 34 25 28 18 78 -14 88 -40 13 -56 12 -56 -4z"/>
<path d="M10171 6064 c14 -16 32 -48 39 -72 12 -39 12 -45 -7 -70 -30 -41
-102 -92 -126 -91 -18 1 -19 2 -4 6 24 6 16 26 -14 34 -60 17 -179 5 -179 -18
0 -5 38 -7 85 -5 53 1 85 -1 85 -8 0 -5 -14 -10 -30 -10 -18 0 -33 -6 -36 -15
-4 -8 -10 -12 -15 -9 -6 3 -22 -2 -37 -12 -15 -10 -33 -17 -40 -16 -6 2 -17
-9 -22 -23 -5 -14 -14 -25 -19 -25 -6 0 -8 7 -5 15 4 8 1 15 -5 15 -11 0 -15
-13 -12 -39 2 -7 -2 -10 -7 -7 -5 3 -15 -1 -22 -9 -9 -11 -9 -18 3 -30 17 -16
62 -21 52 -6 -3 5 -1 12 5 16 5 3 10 0 10 -8 0 -10 9 -14 25 -13 14 0 25 7 25
14 0 17 17 15 24 -4 3 -8 2 -13 -3 -9 -5 3 -19 -6 -30 -21 -15 -19 -26 -24
-42 -19 -16 6 -20 4 -13 -6 6 -11 5 -12 -8 -2 -8 7 -17 10 -20 8 -3 -3 -34
-14 -69 -24 -35 -11 -73 -22 -84 -26 -13 -4 -7 4 15 24 19 17 42 29 51 27 40
-9 61 36 30 63 -10 9 -16 23 -13 31 3 8 2 12 -2 9 -4 -4 -9 -17 -11 -29 -2
-12 -7 -25 -11 -29 -4 -3 -4 2 -1 12 4 9 2 17 -3 17 -6 0 -10 7 -10 16 0 10
-8 7 -26 -13 -23 -25 -25 -26 -21 -6 3 14 1 20 -8 17 -22 -9 -6 54 32 129 2 4
2 7 -1 7 -10 0 -116 -168 -142 -225 -20 -44 -27 -74 -26 -114 1 -50 7 -73 32
-136 5 -11 14 -41 20 -67 7 -26 17 -45 22 -42 5 3 6 14 3 25 -11 34 -14 119
-4 119 5 0 9 9 9 20 0 20 0 20 48 1 26 -10 65 -26 87 -36 22 -9 37 -14 33 -10
-13 14 45 36 87 35 22 -1 63 -1 92 0 28 0 54 -4 58 -10 8 -14 54 -1 79 21 25
23 38 15 26 -16 -6 -15 -6 -27 0 -30 6 -4 10 -13 10 -22 0 -13 -3 -13 -15 -3
-10 8 -15 9 -15 2 0 -16 -42 -53 -55 -49 -16 7 -65 -22 -65 -38 0 -11 12 -15
44 -15 51 0 69 -16 33 -29 -14 -6 -28 -15 -32 -21 -3 -5 -11 -8 -16 -5 -5 4
-12 -1 -15 -9 -3 -9 -10 -14 -14 -11 -4 3 -10 -2 -14 -10 -3 -9 4 -21 18 -30
52 -34 186 9 186 60 0 8 4 15 10 15 5 0 8 10 6 23 -2 14 -9 21 -20 19 -9 -2
-16 2 -16 8 0 6 -13 2 -29 -9 -24 -18 -30 -19 -35 -6 -3 8 -1 15 5 15 6 0 25
11 44 25 29 23 40 46 47 102 1 7 5 10 9 7 14 -8 19 30 10 84 -8 49 -6 56 12
53 4 0 7 5 7 12 0 6 9 -2 19 -19 21 -34 38 -109 45 -194 3 -30 8 -88 11 -129
5 -53 4 -72 -4 -67 -6 4 -11 2 -11 -3 0 -6 5 -11 10 -11 6 0 10 -7 10 -16 0
-12 -6 -15 -25 -10 -14 4 -25 2 -25 -4 0 -5 8 -10 18 -11 13 0 12 -3 -6 -12
-19 -8 -25 -8 -32 3 -14 22 -23 4 -10 -19 9 -17 8 -22 -5 -26 -8 -3 -22 -7
-30 -10 -8 -2 -14 1 -12 7 1 6 -4 13 -12 16 -8 3 -11 0 -7 -7 4 -6 2 -11 -4
-11 -8 0 -10 -9 -6 -24 6 -23 4 -24 -24 -16 -24 7 -30 5 -35 -10 -6 -18 -7
-18 -41 2 l-35 21 -23 -22 c-14 -13 -29 -19 -39 -15 -10 3 -17 1 -17 -5 0 -6
-5 -11 -11 -11 -5 0 -7 5 -3 12 4 6 3 8 -3 5 -12 -7 -68 17 -97 42 -10 9 -22
27 -27 40 -8 19 -12 21 -24 11 -12 -10 -15 -9 -15 9 0 15 -6 21 -21 21 -15 0
-19 4 -15 16 5 14 4 15 -8 5 -12 -10 -13 -8 -9 10 4 15 3 20 -5 15 -8 -5 -12
2 -12 19 0 20 -4 26 -15 21 -9 -3 -18 1 -21 9 -8 21 -24 8 -24 -19 0 -12 -7
-31 -15 -42 -13 -17 -14 -17 -15 -1 0 14 -3 15 -19 5 -11 -7 -17 -16 -14 -22
3 -5 1 -6 -6 -2 -6 4 -8 12 -5 18 4 6 0 14 -7 19 -10 6 -20 1 -32 -14 -14 -18
-16 -19 -10 -3 5 15 3 17 -8 11 -11 -7 -12 -6 -2 7 7 8 10 18 7 21 -4 3 -1 20
5 38 9 25 8 29 -2 20 -11 -8 -13 -4 -9 22 l4 32 -42 -47 c-23 -27 -47 -48 -53
-48 -7 0 -3 7 8 16 17 13 18 16 5 25 -12 8 -12 9 4 7 13 -2 25 7 35 25 14 24
14 29 1 37 -8 5 -11 10 -6 10 5 0 3 7 -4 15 -7 8 -10 21 -7 29 7 17 -17 41
-32 32 -5 -4 -12 4 -14 16 l-4 23 -8 -22 c-4 -13 -11 -23 -16 -23 -5 0 -9 -9
-9 -20 0 -18 -8 -24 -27 -17 -5 1 -8 9 -8 17 -1 8 -6 14 -13 13 -7 -2 -12 4
-12 12 0 9 -6 18 -13 21 -8 3 -13 19 -12 39 0 19 0 35 -1 35 -4 0 -44 -67 -44
-74 0 -4 5 -4 10 -1 6 4 8 -3 6 -17 -3 -13 -5 -26 -5 -30 -1 -12 -29 -9 -37 4
-5 8 -2 9 9 5 10 -3 17 -2 17 3 0 6 -4 10 -9 10 -5 0 -11 8 -14 18 -3 13 -7
10 -17 -13 -10 -23 -14 -26 -17 -12 -3 9 -9 17 -15 17 -5 0 -8 -7 -4 -15 3 -8
1 -15 -4 -15 -6 0 -10 -4 -10 -10 0 -5 7 -6 17 -3 10 4 14 2 9 -5 -3 -6 -2
-13 3 -17 5 -3 14 3 20 12 10 17 12 15 15 -17 1 -10 10 -14 26 -12 l25 3 -29
-26 c-21 -19 -32 -23 -40 -15 -8 8 -7 13 4 20 16 10 16 10 -17 14 -13 2 -23
-1 -23 -6 0 -4 5 -8 10 -8 18 0 10 -29 -12 -46 l-23 -16 25 6 c14 4 46 11 72
17 26 6 46 15 45 21 -3 17 20 20 26 4 10 -26 -21 -47 -58 -40 -19 3 -35 1 -39
-5 -4 -6 -23 -11 -42 -11 -20 0 -34 -5 -34 -12 0 -7 -5 -5 -11 5 -5 9 -18 17
-28 17 -11 0 -21 7 -25 15 -7 19 -3 19 37 0 24 -12 28 -12 15 -2 -18 14 -25
38 -10 36 24 -4 23 4 -3 21 l-30 20 33 -6 c22 -5 32 -3 32 6 0 7 -8 10 -20 7
-11 -3 -22 -1 -25 3 -3 4 -13 6 -23 4 -24 -7 -52 54 -31 67 19 12 2 11 -21 -1
-15 -8 -20 -5 -28 19 -8 21 -19 31 -44 36 -18 4 -48 22 -65 41 l-33 33 -15
-28 c-8 -16 -35 -47 -60 -69 -25 -22 -42 -42 -37 -44 5 -1 17 -21 28 -42 10
-22 23 -38 28 -37 5 2 12 -3 16 -9 5 -9 9 -9 14 -1 4 6 2 11 -3 11 -6 0 -11
13 -11 29 0 24 4 29 20 26 11 -2 19 1 17 8 -1 7 4 11 11 10 6 -2 12 2 12 7 0
6 5 10 10 10 16 0 7 -34 -10 -42 -11 -5 -8 -7 9 -7 15 -1 21 -6 18 -15 -3 -8
3 -23 14 -35 11 -12 17 -21 14 -21 -3 0 4 -10 17 -22 13 -13 19 -20 14 -15 -6
4 -14 7 -18 7 -10 0 54 -89 65 -89 5 -1 6 3 2 8 -3 5 -2 12 3 15 4 2 9 -5 9
-16 1 -12 6 -24 12 -27 5 -4 13 -19 16 -34 9 -33 21 -43 21 -16 0 10 -4 19 -8
19 -4 0 -8 5 -8 10 0 6 7 10 15 10 8 0 15 -7 15 -15 0 -8 9 -24 20 -35 11 -11
20 -23 20 -27 0 -15 53 -61 65 -57 7 3 24 -5 38 -18 45 -41 57 -49 67 -43 6 3
14 -5 20 -19 5 -14 12 -26 15 -26 4 0 4 4 1 8 -2 4 -1 14 4 22 8 13 13 11 32
-9 13 -14 15 -19 6 -12 -12 9 -18 10 -18 3 0 -6 9 -16 20 -22 11 -6 20 -7 20
-2 0 20 57 -2 91 -34 38 -37 50 -36 43 3 -3 15 -1 22 6 18 5 -3 10 -13 10 -21
0 -8 9 -14 21 -14 14 0 19 -5 16 -15 -9 -22 12 -29 32 -11 10 9 21 16 26 16 5
0 0 -7 -11 -15 -12 -9 -14 -14 -6 -15 9 0 11 -7 6 -22 l-6 -23 25 24 c15 13
31 20 38 16 7 -5 10 -3 7 6 -3 8 -11 13 -17 11 -7 -1 -10 2 -6 8 4 6 15 8 25
5 10 -3 21 -1 25 5 7 11 86 12 124 1 l23 -6 -25 -14 c-14 -7 -28 -23 -31 -35
-3 -11 -21 -45 -40 -73 -32 -48 -32 -59 -1 -54 6 1 -2 -10 -17 -24 -16 -14
-28 -33 -28 -42 0 -14 2 -14 14 3 15 19 34 14 21 -6 -7 -12 -19 -17 -120 -56
-88 -34 -51 -29 57 7 51 17 111 44 134 60 56 38 111 104 124 148 20 63 32 91
41 91 5 0 9 -10 9 -22 l0 -22 15 21 c10 15 26 21 55 21 22 0 52 7 67 16 16 8
39 17 53 20 14 3 37 16 51 30 15 14 30 22 33 19 3 -3 12 10 21 30 8 19 19 38
24 41 5 3 12 29 16 56 4 28 10 50 13 50 10 0 9 77 0 86 -12 11 -10 26 2 19 6
-3 10 -1 10 4 0 6 -4 11 -8 11 -5 0 -9 12 -10 28 -1 30 -8 90 -18 167 -3 28
-7 64 -8 81 -1 16 -6 36 -11 44 -5 9 -4 11 3 6 14 -8 14 0 3 29 -6 14 -3 24 8
32 14 11 14 12 -1 13 -20 0 -22 11 -11 61 l8 34 6 -45 6 -45 1 48 c2 47 2 47
36 47 54 0 182 -27 232 -49 57 -26 92 -15 47 14 l-28 18 19 -21 c35 -40 1 -22
-46 24 -27 26 -48 54 -48 63 0 14 -2 14 -10 1 -7 -12 -12 -12 -29 4 -14 13
-21 15 -21 6 0 -28 -30 13 -31 44 -2 30 -2 30 -6 4 -2 -16 -6 -28 -8 -28 -2 0
-18 13 -36 29 l-32 29 22 35 c12 20 27 38 34 41 7 2 2 5 -10 5 -13 1 -23 6
-23 11 0 6 -11 10 -23 10 -21 0 -24 -5 -26 -47 -2 -63 -11 -69 -11 -7 0 37 -7
59 -26 88 -26 38 -76 87 -118 115 -17 11 -16 8 5 -15z m9 -400 c0 -22 -8 -36
-27 -50 -50 -36 -121 -67 -142 -61 -12 3 -24 1 -27 -4 -7 -12 -48 -11 -60 1
-7 7 -16 4 -28 -9 -15 -16 -23 -18 -43 -10 -20 7 -30 6 -44 -7 -15 -13 -24
-15 -42 -7 -15 7 -27 7 -39 -1 -13 -8 -21 -7 -30 2 -11 11 -10 15 2 22 8 4 18
7 21 7 4 -1 16 6 27 16 11 10 31 17 45 15 13 -1 32 3 41 11 10 8 27 11 46 7
21 -4 32 -1 36 8 7 19 40 26 53 13 8 -8 16 -5 27 12 13 18 23 22 48 18 22 -3
36 1 48 16 10 10 24 17 31 14 9 -3 20 5 28 19 15 29 29 15 29 -32z"/>
<path d="M8514 6013 c5 -40 -3 -47 -26 -26 -12 10 -5 -4 15 -32 73 -104 156
-296 172 -402 9 -59 -4 -128 -31 -168 -35 -52 -6 -41 43 15 78 91 74 188 -16
391 -37 85 -116 214 -145 238 -12 11 -14 8 -12 -16z"/>
<path d="M8267 5782 c-24 -26 -22 -103 3 -152 41 -80 130 -117 164 -68 22 31
20 101 -4 148 -39 76 -125 114 -163 72z"/>
<path d="M12345 4571 c-17 -7 -13 -9 20 -15 81 -12 90 -15 93 -25 2 -6 13 -11
25 -11 23 0 110 -28 92 -30 -5 0 17 -10 50 -22 33 -11 72 -29 88 -40 15 -11
27 -16 27 -12 0 3 -23 37 -50 75 -50 66 -52 68 -103 73 -113 12 -223 15 -242
7z"/>
<path d="M14261 4135 c-11 -32 -22 -39 -58 -38 -7 1 -13 -3 -13 -8 0 -5 -20
-14 -45 -20 -51 -13 -62 -24 -45 -44 10 -12 9 -15 -3 -15 -8 0 -20 -13 -27
-30 -7 -16 -17 -30 -22 -30 -5 0 -6 -5 -3 -10 3 -6 -1 -13 -10 -16 -9 -4 -14
-13 -11 -20 3 -8 -1 -14 -9 -14 -8 0 -15 -7 -15 -15 0 -17 -74 -95 -90 -95 -5
0 -10 -4 -10 -8 0 -5 -11 -14 -25 -20 -38 -18 -97 13 -64 33 6 4 8 14 5 22 -4
9 1 17 14 20 12 3 19 11 17 17 -2 6 0 19 5 29 6 12 5 17 -4 19 -7 0 -17 2 -23
3 -5 2 -15 3 -22 4 -6 0 -19 8 -27 17 -9 8 -16 11 -16 6 0 -5 -11 -13 -25 -16
-14 -4 -24 -10 -24 -14 3 -20 -2 -31 -15 -26 -7 3 -21 -2 -30 -11 -9 -9 -22
-13 -28 -9 -7 4 -10 4 -6 -1 4 -4 -2 -16 -14 -26 -11 -11 -17 -19 -13 -19 4 0
0 -9 -10 -20 -12 -13 -26 -18 -39 -15 -12 3 -15 2 -8 -1 23 -11 12 -21 -34
-34 -31 -9 -43 -17 -40 -26 3 -8 1 -14 -4 -14 -6 0 -10 5 -10 10 0 6 -7 6 -19
-2 -10 -6 -17 -16 -15 -22 2 -6 -7 -12 -21 -12 -16 -1 -22 2 -18 10 4 6 -1 5
-10 -2 -9 -8 -20 -11 -26 -8 -14 9 -71 -5 -65 -16 4 -6 -2 -6 -13 1 -11 5 -24
7 -29 2 -12 -10 -105 -1 -99 9 3 5 0 12 -6 16 -8 4 -9 3 -5 -4 9 -15 -6 -16
-22 -2 -9 7 -9 7 -2 -2 25 -30 -6 -68 -49 -59 -7 1 -10 -2 -6 -8 3 -6 -1 -11
-9 -11 -10 0 -13 6 -9 18 6 14 4 15 -9 4 -9 -7 -29 -13 -44 -13 -54 0 -99 -5
-111 -12 -6 -4 -14 -3 -17 2 -3 4 -19 7 -36 5 -23 -3 -29 0 -24 9 5 8 2 7 -9
-2 -10 -8 -20 -11 -24 -8 -3 4 -12 2 -20 -4 -7 -6 -13 -7 -13 -2 0 5 -7 10
-15 10 -9 0 -14 -6 -11 -14 3 -7 0 -13 -6 -13 -6 0 -3 -9 6 -19 10 -11 15 -25
10 -32 -5 -9 -9 -6 -15 8 -6 16 -14 19 -33 16 -15 -3 -29 -10 -33 -16 -3 -6
-1 -7 5 -3 7 4 17 4 24 0 19 -12 -24 -23 -45 -12 -14 7 -22 5 -31 -7 -11 -15
-51 -12 -42 4 3 4 -4 7 -14 7 -10 0 -18 -3 -18 -6 2 -18 -4 -21 -19 -9 -14 12
-16 12 -9 -1 4 -8 -1 -5 -12 8 -11 12 -23 22 -26 22 -13 0 -5 -23 12 -36 15
-12 14 -13 -11 -14 -24 0 -27 3 -21 24 4 16 1 25 -10 29 -9 4 -16 3 -16 -2 0
-15 -49 -19 -74 -6 -14 7 -27 11 -30 7 -3 -3 -6 1 -6 9 0 8 -3 25 -7 38 -4 16
-3 22 5 17 6 -3 13 -2 17 3 3 6 12 8 21 4 8 -3 23 2 33 11 11 10 35 18 54 19
19 1 33 5 31 9 -2 3 15 4 38 2 33 -3 44 0 55 16 8 11 20 18 26 14 7 -3 3 2 -7
10 -19 15 -19 16 7 16 19 0 27 5 27 18 0 14 2 14 9 3 7 -10 9 -6 8 13 -1 16
-7 24 -14 21 -7 -2 -12 1 -10 7 4 17 -53 33 -75 19 -24 -15 -41 -14 -32 2 6
10 4 10 -7 0 -19 -18 -30 -16 -22 4 6 15 5 15 -16 1 -16 -11 -35 -15 -59 -11
-21 4 -33 2 -29 -3 6 -10 -9 -13 -90 -16 -28 -1 -49 -6 -46 -11 3 -4 -1 -7 -8
-6 -8 2 -24 -2 -36 -9 -13 -7 -23 -10 -23 -7 0 3 -8 1 -18 -4 -9 -5 -35 -10
-57 -12 -22 -1 -46 -7 -53 -12 -7 -6 -15 -7 -19 -4 -3 4 -12 2 -20 -4 -9 -9
-13 -8 -13 0 0 17 -27 13 -34 -5 -4 -12 -10 -13 -19 -6 -6 6 -23 12 -37 14
-21 2 -26 10 -31 48 -3 25 -7 36 -8 25 -2 -11 -6 -47 -11 -80 l-8 -60 72 -70
c50 -48 102 -87 171 -124 l100 -55 178 -10 c150 -8 206 -7 350 8 260 26 450
61 642 116 55 16 161 40 235 55 303 59 421 123 614 333 42 45 87 104 100 131
24 51 27 108 6 121 -9 6 -9 9 1 13 10 3 11 8 4 16 -8 8 -15 1 -24 -24z"/>
<path d="M6240 2958 c5 -13 45 -110 89 -215 44 -106 87 -205 94 -219 l14 -26
36 32 c23 19 45 30 58 28 33 -5 58 -47 52 -85 -6 -36 -76 -123 -99 -123 -8 0
-14 -4 -14 -10 0 -5 -8 -10 -19 -10 -13 0 -21 -10 -25 -34 -4 -19 -18 -55 -32
-81 -19 -33 -24 -54 -20 -73 4 -15 7 -33 8 -39 1 -7 6 -13 12 -13 6 0 6 -4 -2
-8 -9 -6 -2 -14 24 -28 29 -15 38 -16 41 -6 5 13 43 -23 78 -71 12 -17 17 -17
116 3 119 24 251 59 261 69 6 6 -47 151 -92 246 -13 28 -60 143 -106 257 -46
114 -89 219 -97 234 l-14 28 -12 -22 c-17 -31 -36 -27 -79 16 -37 37 -249 172
-270 172 -8 0 -9 -7 -2 -22z"/>
<path d="M7685 2036 c-61 -157 -121 -190 -347 -191 -79 0 -128 -4 -128 -10 0
-5 15 -22 34 -37 18 -15 36 -39 40 -53 8 -30 -25 -112 -48 -121 -25 -10 -19
-29 10 -30 90 -6 81 -119 -20 -233 -29 -32 -46 -61 -46 -77 0 -14 -5 -35 -10
-47 -7 -15 -3 -12 12 7 13 16 70 86 129 155 131 157 153 189 222 326 30 61 77
147 105 193 45 75 98 199 88 209 -2 3 -21 -39 -41 -91z"/>
<path d="M6940 1834 c-52 -18 -108 -40 -125 -49 -100 -51 -252 -85 -345 -79
l-65 5 50 -27 c60 -33 143 -36 215 -9 25 9 86 25 135 34 125 25 285 65 285 71
0 3 -12 7 -26 8 -59 5 -58 24 1 49 40 16 42 19 22 25 -35 10 -46 8 -147 -28z"/>
<path d="M7570 1703 c-44 -100 -91 -168 -220 -323 -58 -69 -122 -149 -144
-178 l-38 -52 16 -111 c9 -61 21 -120 26 -130 6 -10 10 -25 10 -34 0 -9 8 -35
19 -58 20 -46 35 -155 18 -138 -12 12 -39 2 -30 -12 3 -6 1 -7 -5 -3 -6 4 -9
13 -6 21 6 14 -12 15 -33 2 -21 -13 -35 3 -28 31 l6 26 -21 -25 c-12 -13 -19
-18 -15 -11 4 7 0 12 -10 12 -9 0 -14 -4 -11 -9 4 -5 1 -20 -4 -33 -10 -23
-10 -23 -6 0 4 21 -8 32 -16 14 -1 -5 -19 -11 -39 -15 -34 -5 -36 -4 -32 16 3
12 -9 -1 -26 -29 -16 -28 -53 -71 -81 -95 -28 -24 -70 -64 -93 -89 -23 -25
-74 -78 -113 -118 l-72 -73 42 -31 c100 -74 193 -89 261 -42 21 14 44 31 52
39 7 8 40 28 73 46 86 46 179 141 222 225 19 38 46 87 59 109 35 56 46 86 73
205 14 58 40 170 60 250 72 296 149 665 144 682 -2 5 -19 -25 -38 -69z"/>
<path d="M7103 1606 c-4 -7 -44 -23 -88 -35 -44 -13 -105 -33 -135 -47 -68
-29 -219 -55 -282 -47 -59 7 -78 0 -71 -25 6 -23 31 -29 147 -38 67 -5 101 -2
196 20 63 15 158 37 210 49 52 12 97 25 99 30 1 4 12 17 24 28 34 31 8 45 -37
20 -25 -15 -36 -17 -36 -8 0 7 4 17 9 23 4 5 0 16 -10 26 -15 14 -20 15 -26 4z"/>
<path d="M6851 1217 c-11 -18 -32 -44 -47 -57 -21 -19 -19 -14 10 24 20 27 35
50 33 53 -2 2 -25 -5 -50 -16 -61 -26 -113 -36 -121 -22 -10 15 -23 14 -29 -3
-4 -10 0 -12 14 -9 18 5 19 2 13 -22 -6 -25 -5 -28 15 -22 11 3 24 1 27 -4 3
-5 14 -9 25 -9 10 0 19 -5 19 -12 0 -9 3 -9 12 0 7 7 17 12 22 12 6 0 5 -5 -2
-12 -18 -18 -15 -28 8 -28 11 0 20 -4 20 -10 0 -5 7 -7 16 -3 8 3 13 12 10 19
-3 7 0 11 7 8 21 -8 58 69 51 104 -9 43 -29 47 -53 9z"/>
<path d="M6690 975 c0 -8 6 -15 13 -15 9 0 9 -2 -1 -9 -7 -4 -15 -14 -16 -22
-2 -8 -11 -31 -20 -52 -15 -35 -20 -38 -43 -32 -23 5 -25 4 -14 -9 9 -10 10
-16 3 -16 -6 0 -9 -7 -6 -15 5 -11 2 -13 -10 -9 -10 4 -16 1 -16 -7 0 -11 -2
-11 -9 0 -13 20 -41 23 -41 4 0 -12 3 -13 15 -3 9 7 6 -4 -7 -28 -15 -27 -27
-38 -38 -34 -12 4 -13 2 -2 -9 17 -19 15 -30 -5 -22 -12 5 -15 2 -10 -10 3 -9
2 -19 -3 -22 -6 -4 -7 -18 -4 -32 4 -15 3 -24 -2 -20 -6 3 -10 -3 -10 -13 0
-15 3 -17 15 -7 12 10 13 9 7 -2 -5 -8 -3 -17 5 -22 11 -7 10 -9 -5 -9 -20 0
-13 -15 7 -15 7 0 11 -9 9 -19 -2 -10 6 -29 18 -41 14 -15 18 -25 11 -30 -11
-6 -12 -5 -15 17 0 6 -7 13 -13 15 -16 6 -17 -33 -2 -42 6 -4 8 -14 5 -22 -4
-9 -2 -11 6 -7 8 5 9 2 5 -9 -4 -11 5 -30 25 -53 l32 -36 19 38 c23 44 106
129 171 173 24 17 67 61 95 100 28 38 58 74 66 81 8 7 15 17 15 23 0 5 -8 3
-18 -6 -10 -10 -27 -17 -38 -17 -17 1 -17 2 4 13 12 7 19 16 15 21 -4 4 1 4
11 0 15 -6 17 -4 11 7 -8 12 -6 12 8 1 9 -8 20 -11 25 -8 12 7 35 96 27 104
-3 3 -5 0 -5 -7 0 -9 -5 -9 -20 -1 -11 6 -20 18 -20 26 0 8 -4 12 -10 9 -5 -3
-10 1 -10 11 0 11 6 15 20 11 11 -3 23 0 27 5 3 7 1 8 -5 4 -8 -5 -12 1 -12
14 0 17 -4 20 -20 15 -15 -5 -18 -3 -14 9 6 15 37 21 73 16 11 -1 11 1 -1 14
-13 12 -26 13 -67 7 -28 -4 -51 -5 -51 -2 0 3 -5 -1 -10 -11 -7 -10 -17 -14
-32 -10 -13 3 -19 1 -15 -6 9 -13 -11 -10 -42 7 -18 10 -22 10 -16 0 6 -9 3
-11 -9 -6 -10 4 -20 7 -22 7 -2 0 -4 7 -4 15 0 8 -7 15 -15 15 -8 0 -15 -7
-15 -15z"/>
</g>
</svg>
